<svg width="56" height="57" viewBox="0 0 56 57" fill="none" xmlns="http://www.w3.org/2000/svg">
<rect y="0.5" width="56" height="56" rx="28" fill="#F6E2FF"/>
<path d="M18.4643 25.8438C18.2158 25.8438 17.989 25.6423 18.0004 25.379C18.0673 23.8369 18.2548 22.833 18.7801 22.0388C19.0823 21.582 19.4576 21.1846 19.8892 20.8647C21.0557 20 22.7014 20 25.9927 20H30.0073C33.2986 20 34.9442 20 36.1108 20.8647C36.5423 21.1846 36.9177 21.582 37.2199 22.0388C37.7451 22.8329 37.9326 23.8367 37.9995 25.3784C38.011 25.6421 37.7839 25.8438 37.5351 25.8438C36.1493 25.8438 35.0259 27.033 35.0259 28.5C35.0259 29.967 36.1493 31.1562 37.5351 31.1562C37.7839 31.1562 38.011 31.3579 37.9995 31.6216C37.9326 33.1634 37.7451 34.1671 37.2199 34.9612C36.9177 35.418 36.5423 35.8154 36.1108 36.1353C34.9442 37 33.2986 37 30.0073 37H25.9927C22.7014 37 21.0557 37 19.8892 36.1353C19.4576 35.8154 19.0823 35.418 18.7801 34.9612C18.2548 34.167 18.0673 33.1631 18.0004 31.6211C17.989 31.3577 18.2158 31.1562 18.4643 31.1562C19.8501 31.1562 20.9735 29.967 20.9735 28.5C20.9735 27.033 19.8501 25.8438 18.4643 25.8438Z" stroke="#AA16EF" stroke-width="1.5" stroke-linejoin="round"/>
<path d="M25.5 31L30.5 26" stroke="#AA16EF" stroke-width="1.5" stroke-linecap="round" stroke-linejoin="round"/>
<path d="M25.5 26H25.5112M30.4887 31H30.5" stroke="#AA16EF" stroke-width="2" stroke-linecap="round" stroke-linejoin="round"/>
</svg>
