<svg width="48" height="49" viewBox="0 0 48 49" fill="none" xmlns="http://www.w3.org/2000/svg">
<path d="M44 24.5C44 13.4543 35.0456 4.5 24 4.5C12.9543 4.5 4 13.4543 4 24.5C4 35.5456 12.9543 44.5 24 44.5" stroke="#002B6B" stroke-width="2" stroke-linecap="round"/>
<path d="M40 11.898C38.1306 12.0327 35.7362 12.7565 34.0758 14.9055C31.077 18.7872 28.078 19.1111 26.0788 17.8172C23.0798 15.8764 25.6 12.7327 22.0802 11.0243C19.7863 9.91084 19.4664 6.8809 20.7432 4.5" stroke="#002B6B" stroke-width="2" stroke-linejoin="round"/>
<path d="M4 22.5C5.525 23.8242 7.66092 25.0364 10.1775 25.0364C15.3769 25.0364 16.4167 26.0298 16.4167 30.0036C16.4167 33.9774 16.4167 33.9774 17.4566 36.9576C18.133 38.8962 18.3694 40.8348 17.0212 42.5" stroke="#002B6B" stroke-width="2" stroke-linejoin="round"/>
<path d="M39.7976 40.3576L44 44.5M42.2166 34.5918C42.2166 39.061 38.5864 42.6838 34.1082 42.6838C29.6302 42.6838 26 39.061 26 34.5918C26 30.1228 29.6302 26.5 34.1082 26.5C38.5864 26.5 42.2166 30.1228 42.2166 34.5918Z" stroke="#002B6B" stroke-width="2" stroke-linecap="round"/>
</svg>
