<svg width="25" height="24" viewBox="0 0 25 24" fill="none" xmlns="http://www.w3.org/2000/svg">
<path d="M11.507 21.5H10.105C6.52 21.5 4.728 21.5 3.614 20.365C2.5 19.23 2.5 17.403 2.5 13.75C2.5 10.097 2.5 8.27 3.614 7.135C4.728 6 6.52 6 10.105 6H13.908C17.493 6 19.286 6 20.4 7.135C21.257 8.008 21.454 9.291 21.5 11.5V13" stroke="#002B6B" stroke-width="1.5" stroke-linecap="round" stroke-linejoin="round"/>
<path d="M19.5 18.5H16.5M16.5 21.5C15.7044 21.5 14.9413 21.1839 14.3787 20.6213C13.8161 20.0587 13.5 19.2956 13.5 18.5C13.5 17.7044 13.8161 16.9413 14.3787 16.3787C14.9413 15.8161 15.7044 15.5 16.5 15.5M19.5 21.5C20.2956 21.5 21.0587 21.1839 21.6213 20.6213C22.1839 20.0587 22.5 19.2956 22.5 18.5C22.5 17.7044 22.1839 16.9413 21.6213 16.3787C21.0587 15.8161 20.2956 15.5 19.5 15.5M16.5 6L16.4 5.69C15.905 4.15 15.658 3.38 15.069 2.94C14.479 2.5 13.697 2.5 12.131 2.5H11.868C10.303 2.5 9.52 2.5 8.931 2.94C8.341 3.38 8.094 4.15 7.599 5.69L7.5 6" stroke="#002B6B" stroke-width="1.5" stroke-linecap="round" stroke-linejoin="round"/>
</svg>
