<svg width="25" height="24" viewBox="0 0 25 24" fill="none" xmlns="http://www.w3.org/2000/svg">
<path d="M12.6053 4.39614C12.6789 3.94949 13.3211 3.94949 13.3947 4.39614L14.3676 10.3027C14.3955 10.4719 14.5281 10.6045 14.6973 10.6324L20.6039 11.6053C21.0505 11.6789 21.0505 12.3211 20.6039 12.3947L14.6973 13.3676C14.5281 13.3955 14.3955 13.5281 14.3676 13.6973L13.3947 19.6039C13.3211 20.0505 12.6789 20.0505 12.6053 19.6039L11.6324 13.6973C11.6045 13.5281 11.4719 13.3955 11.3027 13.3676L5.39614 12.3947C4.94949 12.3211 4.94949 11.6789 5.39614 11.6053L11.3027 10.6324C11.4719 10.6045 11.6045 10.4719 11.6324 10.3027L12.6053 4.39614Z" fill="#0066FF"/>
</svg>
