<svg width="16" height="15" viewBox="0 0 16 15" fill="none" xmlns="http://www.w3.org/2000/svg">
<path d="M5.86715 5.14753L7.4909 1.87752C7.53816 1.78289 7.61086 1.70329 7.70083 1.64766C7.7908 1.59203 7.89449 1.56256 8.00027 1.56256C8.10605 1.56256 8.20974 1.59203 8.29971 1.64766C8.38969 1.70329 8.46238 1.78289 8.50965 1.87752L10.1334 5.14753L13.7634 5.67502C13.8681 5.68954 13.9666 5.73321 14.0477 5.80103C14.1288 5.86886 14.1891 5.95811 14.2219 6.0586C14.2547 6.1591 14.2586 6.26678 14.2331 6.36937C14.2076 6.47196 14.1538 6.56531 14.0778 6.63878L11.4515 9.18252L12.0715 12.7763C12.1509 13.2375 11.6634 13.5888 11.2465 13.3713L8.00027 11.6738L4.7534 13.3713C4.33715 13.5894 3.84965 13.2375 3.92902 12.7757L4.54902 9.1819L1.92277 6.63815C1.84714 6.56463 1.79364 6.47137 1.76837 6.36897C1.7431 6.26657 1.74707 6.15913 1.77981 6.05887C1.81256 5.9586 1.87278 5.86954 1.95363 5.8018C2.03447 5.73405 2.1327 5.69035 2.23715 5.67565L5.86715 5.14753Z" fill="#FFC805"/>
</svg>
