<svg width="215" height="55" viewBox="0 0 215 55" fill="none" xmlns="http://www.w3.org/2000/svg">
<path d="M16.335 36.946V23.257L13.014 37H9.477L5.94 23.176V37H1.35V27.604L5.913 23.014L5.886 22.987H1.35V18.1H7.695L11.205 30.547L14.499 18.1H20.925V36.946H16.335ZM28.2203 29.359V37H23.6303V33.976L28.2203 29.359H23.6303V18.1H28.2203V25.309H33.7823V18.1H38.3723V37H33.7823V29.359H28.2203ZM41.0854 37V32.572H45.1624V37H41.0854ZM64.2237 37L58.0947 22.177V37H55.3677V17.614H59.0127L65.5197 33.355L71.9997 17.614H75.6717V37H72.9177V22.15L66.7617 37H64.2237ZM88.3138 37V34.786C87.4228 36.379 85.8298 37.27 83.7238 37.27C80.7538 37.27 78.8098 35.569 78.8098 32.95C78.8098 30.142 81.0508 28.684 85.3168 28.684C86.1538 28.684 86.8288 28.711 87.9898 28.846V27.793C87.9898 25.741 86.8828 24.58 84.9928 24.58C82.9948 24.58 81.7798 25.768 81.6988 27.766H79.2148C79.3498 24.553 81.6448 22.42 84.9928 22.42C88.5298 22.42 90.5818 24.418 90.5818 27.82V37H88.3138ZM81.4018 32.869C81.4018 34.354 82.5088 35.326 84.2638 35.326C86.5588 35.326 87.9898 33.895 87.9898 31.708V30.547C86.9368 30.412 86.1808 30.385 85.4788 30.385C82.7518 30.385 81.4018 31.195 81.4018 32.869ZM105.568 32.734C105.568 35.542 103.381 37.27 99.5739 37.27C95.7939 37.27 93.5529 35.407 93.2829 32.329H95.9019C96.0099 34.111 97.4409 35.218 99.6279 35.218C101.545 35.218 102.814 34.543 102.814 33.193C102.814 32.005 102.085 31.492 100.303 31.141L97.9809 30.709C95.3349 30.196 93.8499 28.846 93.8499 26.686C93.8499 24.175 96.0369 22.42 99.3579 22.42C102.787 22.42 105.109 24.256 105.352 27.199H102.733C102.571 25.471 101.302 24.472 99.3849 24.472C97.6569 24.472 96.4959 25.201 96.4959 26.443C96.4959 27.604 97.2249 28.144 98.9529 28.468L101.383 28.927C104.218 29.44 105.568 30.682 105.568 32.734ZM116.434 34.354V36.757C115.597 37.135 114.868 37.27 114.004 37.27C111.358 37.27 109.522 35.839 109.522 32.68V25.012H106.363V22.69H109.522V18.451H112.249V22.69H116.569V25.012H112.249V32.059C112.249 34.03 113.194 34.732 114.652 34.732C115.3 34.732 115.867 34.624 116.434 34.354ZM124.662 37.27C120.531 37.27 117.75 34.273 117.75 29.764C117.75 25.525 120.639 22.42 124.581 22.42C128.847 22.42 131.682 25.876 131.196 30.52H120.531C120.747 33.436 122.205 35.137 124.608 35.137C126.633 35.137 128.037 34.03 128.496 32.167H131.196C130.494 35.353 128.037 37.27 124.662 37.27ZM124.527 24.472C122.34 24.472 120.855 26.038 120.558 28.711H128.307C128.172 26.065 126.741 24.472 124.527 24.472ZM136.822 29.683V37H134.095V22.69H136.633V25.714C137.632 23.743 139.792 22.501 142.141 22.501V25.336C139.063 25.174 136.822 26.524 136.822 29.683ZM155.639 32.734C155.639 35.542 153.452 37.27 149.645 37.27C145.865 37.27 143.624 35.407 143.354 32.329H145.973C146.081 34.111 147.512 35.218 149.699 35.218C151.616 35.218 152.885 34.543 152.885 33.193C152.885 32.005 152.156 31.492 150.374 31.141L148.052 30.709C145.406 30.196 143.921 28.846 143.921 26.686C143.921 24.175 146.108 22.42 149.429 22.42C152.858 22.42 155.18 24.256 155.423 27.199H152.804C152.642 25.471 151.373 24.472 149.456 24.472C147.728 24.472 146.567 25.201 146.567 26.443C146.567 27.604 147.296 28.144 149.024 28.468L151.454 28.927C154.289 29.44 155.639 30.682 155.639 32.734ZM167.445 37H164.475V17.614H167.445V25.714H177.273V17.614H180.243V37H177.273V28.306H167.445V37ZM193.182 31.114V22.69H195.909V37H193.371V34.732C192.615 36.217 190.941 37.27 188.997 37.27C186.108 37.27 184.11 35.569 184.11 31.897V22.69H186.837V31.357C186.837 33.841 188.079 34.867 189.861 34.867C191.697 34.867 193.182 33.355 193.182 31.114ZM213.359 29.845C213.359 34.138 210.875 37.27 207.014 37.27C204.989 37.27 203.261 36.244 202.235 34.435V37H199.697V17.614H202.424V25.147C203.423 23.392 205.07 22.42 207.014 22.42C210.848 22.42 213.359 25.498 213.359 29.845ZM210.524 29.845C210.524 26.605 208.823 24.823 206.474 24.823C204.206 24.823 202.424 26.578 202.424 29.791C202.424 32.95 204.152 34.84 206.474 34.84C208.823 34.84 210.524 33.031 210.524 29.845Z" fill="#0066FF"/>
</svg>
