<svg width="26" height="26" viewBox="0 0 26 26" fill="none" xmlns="http://www.w3.org/2000/svg">
<path d="M17.9835 6.305C17.243 5.45959 16.8349 4.37389 16.8352 3.25H13.4877V16.6833C13.4619 17.4103 13.1549 18.0988 12.6316 18.604C12.1082 19.1092 11.4092 19.3916 10.6818 19.3917C9.1435 19.3917 7.86517 18.135 7.86517 16.575C7.86517 14.7117 9.6635 13.3142 11.516 13.8883V10.465C7.7785 9.96667 4.50684 12.87 4.50684 16.575C4.50684 20.1825 7.49684 22.75 10.671 22.75C14.0727 22.75 16.8352 19.9875 16.8352 16.575V9.76083C18.1926 10.7357 19.8223 11.2587 21.4935 11.2558V7.90833C21.4935 7.90833 19.4568 8.00583 17.9835 6.305Z" fill="#002B6B"/>
</svg>
