<svg width="184" height="53" viewBox="0 0 184 53" fill="none" xmlns="http://www.w3.org/2000/svg">
<path d="M14.415 34.954V23.293L11.586 35H8.573L5.56 23.224V35H1.65V26.996L5.537 23.086L5.514 23.063H1.65V18.9H7.055L10.045 29.503L12.851 18.9H18.325V34.954H14.415ZM24.5395 28.491V35H20.6295V32.424L24.5395 28.491H20.6295V18.9H24.5395V25.041H29.2775V18.9H33.1875V35H29.2775V28.491H24.5395ZM35.4986 35V31.228H38.9716V35H35.4986ZM55.2091 35L49.9881 22.373V35H47.6651V18.486H50.7701L56.3131 31.895L61.8331 18.486H64.9611V35H62.6151V22.35L57.3711 35H55.2091ZM75.7303 35V33.114C74.9713 34.471 73.6143 35.23 71.8203 35.23C69.2903 35.23 67.6343 33.781 67.6343 31.55C67.6343 29.158 69.5433 27.916 73.1773 27.916C73.8903 27.916 74.4653 27.939 75.4543 28.054V27.157C75.4543 25.409 74.5113 24.42 72.9013 24.42C71.1993 24.42 70.1643 25.432 70.0953 27.134H67.9793C68.0943 24.397 70.0493 22.58 72.9013 22.58C75.9143 22.58 77.6623 24.282 77.6623 27.18V35H75.7303ZM69.8423 31.481C69.8423 32.746 70.7853 33.574 72.2803 33.574C74.2353 33.574 75.4543 32.355 75.4543 30.492V29.503C74.5573 29.388 73.9133 29.365 73.3153 29.365C70.9923 29.365 69.8423 30.055 69.8423 31.481ZM90.4282 31.366C90.4282 33.758 88.5652 35.23 85.3222 35.23C82.1022 35.23 80.1932 33.643 79.9632 31.021H82.1942C82.2862 32.539 83.5052 33.482 85.3682 33.482C87.0012 33.482 88.0822 32.907 88.0822 31.757C88.0822 30.745 87.4612 30.308 85.9432 30.009L83.9652 29.641C81.7112 29.204 80.4462 28.054 80.4462 26.214C80.4462 24.075 82.3092 22.58 85.1382 22.58C88.0592 22.58 90.0372 24.144 90.2442 26.651H88.0132C87.8752 25.179 86.7942 24.328 85.1612 24.328C83.6892 24.328 82.7002 24.949 82.7002 26.007C82.7002 26.996 83.3212 27.456 84.7932 27.732L86.8632 28.123C89.2782 28.56 90.4282 29.618 90.4282 31.366ZM99.6843 32.746V34.793C98.9713 35.115 98.3503 35.23 97.6143 35.23C95.3603 35.23 93.7963 34.011 93.7963 31.32V24.788H91.1053V22.81H93.7963V19.199H96.1193V22.81H99.7993V24.788H96.1193V30.791C96.1193 32.47 96.9243 33.068 98.1663 33.068C98.7183 33.068 99.2013 32.976 99.6843 32.746ZM106.693 35.23C103.174 35.23 100.805 32.677 100.805 28.836C100.805 25.225 103.266 22.58 106.624 22.58C110.258 22.58 112.673 25.524 112.259 29.48H103.174C103.358 31.964 104.6 33.413 106.647 33.413C108.372 33.413 109.568 32.47 109.959 30.883H112.259C111.661 33.597 109.568 35.23 106.693 35.23ZM106.578 24.328C104.715 24.328 103.45 25.662 103.197 27.939H109.798C109.683 25.685 108.464 24.328 106.578 24.328ZM117.052 28.767V35H114.729V22.81H116.891V25.386C117.742 23.707 119.582 22.649 121.583 22.649V25.064C118.961 24.926 117.052 26.076 117.052 28.767ZM133.082 31.366C133.082 33.758 131.219 35.23 127.976 35.23C124.756 35.23 122.847 33.643 122.617 31.021H124.848C124.94 32.539 126.159 33.482 128.022 33.482C129.655 33.482 130.736 32.907 130.736 31.757C130.736 30.745 130.115 30.308 128.597 30.009L126.619 29.641C124.365 29.204 123.1 28.054 123.1 26.214C123.1 24.075 124.963 22.58 127.792 22.58C130.713 22.58 132.691 24.144 132.898 26.651H130.667C130.529 25.179 129.448 24.328 127.815 24.328C126.343 24.328 125.354 24.949 125.354 26.007C125.354 26.996 125.975 27.456 127.447 27.732L129.517 28.123C131.932 28.56 133.082 29.618 133.082 31.366ZM143.138 35H140.608V18.486H143.138V25.386H151.51V18.486H154.04V35H151.51V27.594H143.138V35ZM165.063 29.986V22.81H167.386V35H165.224V33.068C164.58 34.333 163.154 35.23 161.498 35.23C159.037 35.23 157.335 33.781 157.335 30.653V22.81H159.658V30.193C159.658 32.309 160.716 33.183 162.234 33.183C163.798 33.183 165.063 31.895 165.063 29.986ZM182.25 28.905C182.25 32.562 180.134 35.23 176.845 35.23C175.12 35.23 173.648 34.356 172.774 32.815V35H170.612V18.486H172.935V24.903C173.786 23.408 175.189 22.58 176.845 22.58C180.111 22.58 182.25 25.202 182.25 28.905ZM179.835 28.905C179.835 26.145 178.386 24.627 176.385 24.627C174.453 24.627 172.935 26.122 172.935 28.859C172.935 31.55 174.407 33.16 176.385 33.16C178.386 33.16 179.835 31.619 179.835 28.905Z" fill="white"/>
</svg>
