<svg width="60" height="60" viewBox="0 0 60 60" fill="none" xmlns="http://www.w3.org/2000/svg">
<circle cx="30" cy="30" r="30" fill="#1D9BF0"/>
<g clip-path="url(#clip0_10062_380)">
<path d="M40.3738 25.1704C40.3889 25.3892 40.3889 25.6079 40.3889 25.8287C40.3889 32.5555 35.2679 40.3136 25.904 40.3136V40.3095C23.1379 40.3136 20.4292 39.5212 18.1006 38.0273C18.5028 38.0757 18.907 38.0999 19.3123 38.1009C21.6046 38.1029 23.8314 37.3337 25.6349 35.9174C23.4564 35.8761 21.5462 34.4557 20.8788 32.3821C21.6419 32.5293 22.4282 32.499 23.1772 32.2944C20.8022 31.8146 19.0935 29.7279 19.0935 27.3045C19.0935 27.2823 19.0935 27.2611 19.0935 27.24C19.8012 27.6341 20.5935 27.8529 21.404 27.8771C19.1671 26.3821 18.4776 23.4063 19.8284 21.0797C22.4131 24.2601 26.2266 26.1936 30.3203 26.3982C29.9101 24.6301 30.4705 22.7773 31.7931 21.5343C33.8435 19.6069 37.0683 19.7057 38.9957 21.7551C40.1359 21.5303 41.2286 21.112 42.2286 20.5192C41.8486 21.6976 41.0532 22.6986 39.9907 23.3347C40.9998 23.2158 41.9857 22.9456 42.9141 22.5333C42.2306 23.5575 41.3697 24.4497 40.3738 25.1704Z" fill="white"/>
</g>
<defs>
<clipPath id="clip0_10062_380">
<rect width="25" height="20.5645" fill="white" transform="translate(18 20)"/>
</clipPath>
</defs>
</svg>
